Coordinates
version=1
nRows=13
nColumns=36
inDegrees=yes

Units are S.I. units (second, meters, Newtons, ...)
If the header above contains a line with 'inDegrees', this indicates whether rotational values are in degrees (yes) or radians (no).

endheader
time	pelvis_tilt	pelvis_list	pelvis_rotation	pelvis_tx	pelvis_ty	pelvis_tz	hip_flexion_r	hip_adduction_r	hip_rotation_r	knee_angle_r	knee_angle_r_beta	ankle_angle_r	subtalar_angle_r	mtp_angle_r	hip_flexion_l	hip_adduction_l	hip_rotation_l	knee_angle_l	knee_angle_l_beta	ankle_angle_l	subtalar_angle_l	mtp_angle_l	lumbar_extension	lumbar_bending	lumbar_rotation	arm_flex_r	arm_add_r	arm_rot_r	elbow_flex_r	pro_sup_r	arm_flex_l	arm_add_l	arm_rot_l	elbow_flex_l	pro_sup_l
      3.78750000	     -2.41164162	     -2.14875065	      3.43073732	      0.07484253	      0.90675885	     -0.06792794	     38.39737436	     -9.13693630	     -6.14408544	     47.75345424	      0.83345501	      8.46574814	     -8.32598953	     -7.49999987	     40.77143901	     -7.36336711	      6.15400352	     49.30224120	      0.86048644	      7.07128769	     -2.11891191	     -7.49999987	    -33.19426919	      1.78041941	     -2.43283789	    -36.41692192	    -17.25989323	    -32.23866471	     38.78370534	     66.60199293	    -32.58898623	    -18.29734585	    -33.06585506	     49.59889899	     63.76036917
      3.79166670	     -2.21272470	     -2.09517934	      3.35463956	      0.07243382	      0.89938768	     -0.06844737	     39.99178861	     -9.37035943	     -5.48980880	     50.69182880	      0.88473932	      9.19923241	     -8.72197102	     -7.49999987	     42.29138153	     -7.28020013	      6.50856392	     52.35926849	      0.91384163	      8.00853794	     -2.04302368	     -7.49999987	    -34.18852180	      1.80373804	     -2.15184603	    -35.59457316	    -16.62933986	    -33.35662973	     38.97978382	     66.37003930	    -31.13839812	    -17.16090258	    -33.95223141	     48.59239239	     63.59269980
      3.79583330	     -1.61191283	     -2.01366871	      3.34535874	      0.07355016	      0.89528900	     -0.06794843	     40.69517792	     -9.51269670	     -5.07860861	     52.83540403	      0.92215176	      9.51680508	     -9.20236417	     -7.49999987	     43.10737395	     -7.17459539	      6.88560152	     54.62131298	      0.95332175	      8.15008191	     -2.20152231	     -7.49999987	    -36.14070155	      1.69094356	     -2.33597284	    -34.14617506	    -16.18955717	    -33.21815635	     39.18003523	     66.41926575	    -29.81216307	    -16.71314623	    -33.67389746	     48.34782276	     63.62618927
      3.80000000	     -1.40407998	     -1.94909572	      3.29799589	      0.07428776	      0.89003650	     -0.06722546	     41.58341345	     -9.47361472	     -4.50249193	     54.75966474	      0.95573645	     10.40681173	     -9.80867091	     -7.49999987	     43.99740529	     -7.28791987	      6.98335902	     56.49121913	      0.98595777	      8.99803101	     -1.73583891	     -7.49999987	    -37.17007912	      1.76180772	     -2.50312651	    -32.76601891	    -15.46191044	    -34.55090515	     39.17021505	     67.57100370	    -27.65851765	    -17.70894242	    -31.54709097	     44.43148444	     63.67733300
      3.80416670	     -1.02922793	     -1.86410156	      3.41942627	      0.07310912	      0.88472832	     -0.06559903	     41.94911104	     -9.41995134	     -4.14831327	     56.19558275	      0.98079794	     11.13875716	    -10.17732721	     -7.49999987	     44.49891752	     -7.37195189	      7.11737058	     57.93053548	      1.01107858	      9.56465267	     -1.43830498	     -7.49999987	    -38.88415273	      1.64865793	     -2.96849153	    -30.90669852	    -14.86586821	    -34.65221417	     38.92796232	     67.77137561	    -26.04702527	    -17.85415993	    -31.23715983	     42.83664561	     63.43607269
      3.80833330	     -0.44011962	     -1.85650925	      3.48765890	      0.07841977	      0.87690181	     -0.06541704	     42.17834085	     -9.40571760	     -3.78684201	     57.94089784	      1.01125944	     12.33394585	    -10.38726073	     -7.49999987	     44.73816601	     -7.63630450	      7.03814314	     59.55849603	      1.03949185	     10.62742539	     -1.07188770	     -7.49999987	    -40.33193356	      1.54817436	     -3.35328075	    -29.67605497	    -14.31368419	    -34.59014757	     39.04367674	     67.99951887	    -25.10337344	    -17.55237125	    -31.01819857	     41.32421357	     63.27735588
      3.81250000	     -0.00478799	     -1.82058791	      3.69641616	      0.07545879	      0.87612573	     -0.06470139	     42.29495699	     -9.44963680	     -3.58223888	     59.20486498	      1.03331983	     13.10648571	    -10.46925763	     -7.49999987	     44.85051504	     -7.73685322	      6.97891778	     60.59875909	      1.05764787	     11.36173104	     -0.85970758	     -7.49999987	    -42.09078417	      1.33351010	     -3.68116689	    -27.91917362	    -13.72586387	    -34.40505948	     38.64671199	     68.29199071	    -23.43694527	    -17.35495588	    -30.40734776	     39.74281005	     63.15280535
      3.81666670	      0.63240424	     -1.77401950	      3.82818267	      0.07570052	      0.86961726	     -0.06287916	     42.33779547	     -9.51642094	     -3.43602924	     60.55362574	      1.05686014	     14.06706273	    -10.51556748	     -7.49999987	     44.81901618	     -7.97756176	      6.92238822	     61.70441696	      1.07694524	     12.31106521	     -0.55437788	     -7.49999987	    -43.73288658	      1.13046060	     -3.82189697	    -26.57824519	    -13.15442503	    -34.13791792	     38.70147996	     68.54569952	    -22.16001113	    -17.15374215	    -30.05089240	     38.73000620	     63.04188246
      3.82083330	      1.18943272	     -1.72191545	      4.04316064	      0.07431627	      0.86587621	     -0.06316357	     42.49487995	     -9.70147173	     -3.48963024	     61.84497090	      1.07939837	     14.80279712	    -10.39263761	     -7.49999987	     44.98581251	     -8.01500251	      6.80351872	     62.95448200	      1.09876299	     12.94811966	     -0.66625127	     -7.49999987	    -45.51710397	      1.19914634	     -3.92960688	    -25.09010228	    -12.68728347	    -33.63809860	     38.57517792	     68.75654724	    -20.49171039	    -17.46686884	    -27.62297329	     37.01385673	     62.30950923
      3.82500000	      1.68329584	     -1.79412170	      4.22518288	      0.07471694	      0.85818999	     -0.06410219	     42.80178898	     -9.81680031	     -3.39994050	     63.25868123	      1.10407227	     15.26197031	    -10.68052683	     -7.49999987	     45.19570565	     -8.08531540	      7.00813864	     64.06113369	      1.11807771	     13.66411237	     -0.66422585	     -7.49999987	    -47.14298080	      1.26118915	     -4.08875064	    -23.82957730	    -12.33506533	    -33.49661148	     38.52707035	     68.87646586	    -19.61878827	    -17.08708066	    -27.26362488	     36.77517931	     62.32476249
      3.82916670	      2.33279735	     -1.71947718	      4.37531548	      0.07476287	      0.85762929	     -0.06445998	     42.64630669	    -10.16970359	     -3.50595451	     64.31484854	      1.12250586	     16.06522565	    -10.21346066	     -7.49999987	     44.88627808	     -8.11910919	      6.74210750	     64.86237372	      1.13206198	     14.79449233	      0.13551619	     -7.49999987	    -49.17903663	      0.98968314	     -4.63111423	    -21.76203428	    -11.74157799	    -33.65287732	     38.21102447	     68.93820621	    -18.15169945	    -16.87413157	    -25.99052451	     35.75962413	     62.17334660
      3.83333330	      2.71394518	     -1.67680236	      4.52455743	      0.07272859	      0.85738094	     -0.06193783	     42.55280067	    -10.21894379	     -3.50683100	     64.94681947	      1.13353584	     16.51017507	    -10.20670199	     -7.49999987	     44.76173738	     -8.19603374	      6.62536888	     65.23488589	      1.13856355	     15.21495962	      0.32149976	     -7.49999987	    -51.27137606	      0.63592931	     -4.91534934	    -19.85217227	    -10.83930607	    -33.67102537	     38.43972408	     69.05269682	    -15.66864061	    -17.10009521	    -25.80185105	     35.28502770	     61.94799538
      3.83750000	      3.04323327	     -1.67447395	      4.54598438	      0.07316896	      0.85386405	     -0.06438894	     42.58051918	    -10.30038202	     -3.39406465	     65.60083342	      1.14495054	     16.79179064	    -10.42610909	     -7.49999987	     44.80994891	     -8.25061239	      6.52888867	     65.91904810	      1.15050443	     15.65272040	      0.23395625	     -7.49999987	    -53.28147179	      0.60049064	     -4.77279242	    -18.83426205	     -9.85758838	    -34.79749030	     39.61573934	     69.02645083	    -13.28377585	    -17.25093965	    -26.12471746	     35.05579325	     61.09834994
